<svg xmlns="http://www.w3.org/2000/svg" width="64" height="64" viewBox="0 0 64 64" fill="none"><circle cx="32" cy="32.1426" r="30.4091" fill="white" stroke="#3C74F3" stroke-width="2.18174"></circle><mask id="mask0_12_3149" style="mask-type:alpha" maskUnits="userSpaceOnUse" x="9" y="10" width="45" height="45"><rect x="9.85156" y="10.9785" width="43.3125" height="43.3125" fill="#3C74F3"></rect></mask><g mask="url(#mask0_12_3149)"><path d="M16.1679 47.0721C15.446 47.0721 14.8144 46.8014 14.273 46.26C13.7316 45.7186 13.4609 45.087 13.4609 44.3651V20.9042C13.4609 20.1823 13.7316 19.5507 14.273 19.0093C14.8144 18.4678 15.446 18.1971 16.1679 18.1971H46.8476C47.5695 18.1971 48.2011 18.4678 48.7425 19.0093C49.2839 19.5507 49.5546 20.1823 49.5546 20.9042V44.3651C49.5546 45.087 49.2839 45.7186 48.7425 46.26C48.2011 46.8014 47.5695 47.0721 46.8476 47.0721H16.1679ZM31.5078 33.4468L46.8476 23.3856V20.9042L31.5078 30.7397L16.1679 20.9042V23.3856L31.5078 33.4468Z" fill="#3C74F3"></path></g></svg>