<svg xmlns="http://www.w3.org/2000/svg" width="64" height="64" viewBox="0 0 64 64" fill="none"><circle cx="32" cy="32.1426" r="30.4091" fill="white" stroke="#05A68B" stroke-width="2.18174"></circle><path d="M31.9623 11.4707L28.2107 14.9782L22.3747 13.7402L20.082 18.8983L15.0798 20.1362L15.7051 25.7069L11.3281 29.627L14.4545 33.9597L12.7871 38.9114L17.5809 42.0062L18.2062 47.3706H24.2506L28.0022 52.3223L31.9623 49.0211L36.9646 51.9096L39.8825 47.3706H45.51L46.3438 42.0062L51.1376 38.9114L49.2617 33.9597L52.1797 29.627L48.2196 25.7069L48.6364 20.1362L44.0511 18.8983L41.3415 13.7402L35.9224 14.9782L31.9623 11.4707Z" fill="#25D366"></path><path d="M24.8764 31.4794L22.7921 33.9805L29.8786 40.4417L41.7589 26.0603L39.0494 23.7676L29.2533 35.4395L24.8764 31.4794Z" fill="white"></path></svg>