<svg xmlns="http://www.w3.org/2000/svg" width="64" height="64" viewBox="0 0 64 64" fill="none"><circle cx="32" cy="32" r="30.4091" fill="white" stroke="#05A68B" stroke-width="2.18174"></circle><path d="M15.0605 47.9552V17.983C15.0605 17.362 15.3036 16.8017 15.7896 16.3022C16.2756 15.8026 16.8427 15.5529 17.4907 15.5529H45.0327C45.6538 15.5529 46.214 15.8026 46.7136 16.3022C47.2131 16.8017 47.4629 17.362 47.4629 17.983V39.0446C47.4629 39.6656 47.2131 40.2259 46.7136 40.7254C46.214 41.225 45.6538 41.4747 45.0327 41.4747H21.541L15.0605 47.9552Z" fill="#05A68B"></path><path d="M21.2244 32.8408L26.4569 27.6083L31.6895 32.8408L42.0091 22.5211" stroke="white" stroke-width="1.88952"></path><circle cx="21.2244" cy="32.8407" r="2.76161" fill="white"></circle><circle cx="41.1371" cy="23.5386" r="2.76161" fill="white"></circle></svg>