<svg xmlns="http://www.w3.org/2000/svg" width="64" height="64" viewBox="0 0 64 64" fill="none"><circle cx="32" cy="32" r="29.4438" fill="white" stroke="#FAB534" stroke-width="2.11248"></circle><mask id="mask0_12_3120" style="mask-type:alpha" maskUnits="userSpaceOnUse" x="10" y="10" width="44" height="44"><rect x="10.5547" y="10.5547" width="42.8906" height="42.8906" fill="#FAB534"></rect></mask><g mask="url(#mask0_12_3120)"><path d="M18.5967 48.084C17.8818 48.084 17.2563 47.8159 16.7202 47.2798C16.1841 46.7437 15.916 46.1182 15.916 45.4033V18.5967C15.916 17.8818 16.1841 17.2563 16.7202 16.7202C17.2563 16.1841 17.8818 15.916 18.5967 15.916H39.2378L48.084 24.7622V45.4033C48.084 46.1182 47.8159 46.7437 47.2798 47.2798C46.7437 47.8159 46.1182 48.084 45.4033 48.084H18.5967ZM24.3601 40.9802C24.7175 40.9802 25.0303 40.8462 25.2983 40.5781C25.5664 40.3101 25.7004 39.9973 25.7004 39.6399C25.7004 39.2825 25.5664 38.9697 25.2983 38.7017C25.0303 38.4336 24.7175 38.2996 24.3601 38.2996C24.0027 38.2996 23.6899 38.4336 23.4219 38.7017C23.1538 38.9697 23.0198 39.2825 23.0198 39.6399C23.0198 39.9973 23.1538 40.3101 23.4219 40.5781C23.6899 40.8462 24.0027 40.9802 24.3601 40.9802ZM24.3601 33.3403C24.7175 33.3403 25.0303 33.2063 25.2983 32.9382C25.5664 32.6702 25.7004 32.3574 25.7004 32C25.7004 31.6426 25.5664 31.3298 25.2983 31.0618C25.0303 30.7937 24.7175 30.6597 24.3601 30.6597C24.0027 30.6597 23.6899 30.7937 23.4219 31.0618C23.1538 31.3298 23.0198 31.6426 23.0198 32C23.0198 32.3574 23.1538 32.6702 23.4219 32.9382C23.6899 33.2063 24.0027 33.3403 24.3601 33.3403ZM24.3601 25.7004C24.7175 25.7004 25.0303 25.5664 25.2983 25.2983C25.5664 25.0303 25.7004 24.7175 25.7004 24.3601C25.7004 24.0027 25.5664 23.6899 25.2983 23.4219C25.0303 23.1538 24.7175 23.0198 24.3601 23.0198C24.0027 23.0198 23.6899 23.1538 23.4219 23.4219C23.1538 23.6899 23.0198 24.0027 23.0198 24.3601C23.0198 24.7175 23.1538 25.0303 23.4219 25.2983C23.6899 25.5664 24.0027 25.7004 24.3601 25.7004ZM37.7634 26.2366H45.4033L37.7634 18.5967V26.2366Z" fill="#FAB534"></path></g></svg>